<?xml version="1.0" encoding="UTF-8" standalone="no"?>
<!DOCTYPE svg PUBLIC "-//W3C//DTD SVG 1.1//EN"
 "http://www.w3.org/Graphics/SVG/1.1/DTD/svg11.dtd">
<!-- Generated by graphviz version 2.44.0 (20200518.1210)
 -->
<!-- Title: fsm Pages: 1 -->
<svg width="576pt" height="44pt"
 viewBox="0.00 0.00 576.00 44.50" xmlns="http://www.w3.org/2000/svg" xmlns:xlink="http://www.w3.org/1999/xlink">
<g id="graph0" class="graph" transform="scale(0.66 0.66) rotate(0) translate(4 63.04)">
<title>fsm</title>
<polygon fill="white" stroke="transparent" points="-4,4 -4,-63.04 863.86,-63.04 863.86,4 -4,4"/>
<!-- INITIAL_STATE -->
<g id="node1" class="node">
<title>INITIAL_STATE</title>
<ellipse fill="black" stroke="black" cx="1.8" cy="-29.52" rx="1.8" ry="1.8"/>
</g>
<!-- q1 -->
<g id="node3" class="node">
<title>q1</title>
<ellipse fill="none" stroke="black" cx="61.29" cy="-29.52" rx="20.89" ry="20.89"/>
<text text-anchor="middle" x="61.29" y="-25.32" font-family="Times,serif" font-size="14.00">q1</text>
</g>
<!-- INITIAL_STATE&#45;&gt;q1 -->
<g id="edge1" class="edge">
<title>INITIAL_STATE&#45;&gt;q1</title>
<path fill="none" stroke="black" d="M3.8,-29.52C7.17,-29.52 18.55,-29.52 30.23,-29.52"/>
<polygon fill="black" stroke="black" points="30.38,-33.02 40.38,-29.52 30.38,-26.02 30.38,-33.02"/>
</g>
<!-- q10 -->
<g id="node2" class="node">
<title>q10</title>
<ellipse fill="none" stroke="black" cx="830.34" cy="-29.52" rx="25.54" ry="25.54"/>
<ellipse fill="none" stroke="black" cx="830.34" cy="-29.52" rx="29.54" ry="29.54"/>
<text text-anchor="middle" x="830.34" y="-25.32" font-family="Times,serif" font-size="14.00">q10</text>
</g>
<!-- q2 -->
<g id="node4" class="node">
<title>q2</title>
<ellipse fill="none" stroke="black" cx="143.34" cy="-29.52" rx="20.89" ry="20.89"/>
<text text-anchor="middle" x="143.34" y="-25.32" font-family="Times,serif" font-size="14.00">q2</text>
</g>
<!-- q1&#45;&gt;q2 -->
<g id="edge2" class="edge">
<title>q1&#45;&gt;q2</title>
<path fill="none" stroke="black" d="M82.08,-29.52C91.22,-29.52 102.27,-29.52 112.4,-29.52"/>
<polygon fill="black" stroke="black" points="112.5,-33.02 122.5,-29.52 112.5,-26.02 112.5,-33.02"/>
<text text-anchor="middle" x="102.32" y="-33.72" font-family="Times,serif" font-size="14.00">r</text>
</g>
<!-- q3 -->
<g id="node5" class="node">
<title>q3</title>
<ellipse fill="none" stroke="black" cx="228.89" cy="-29.52" rx="20.89" ry="20.89"/>
<text text-anchor="middle" x="228.89" y="-25.32" font-family="Times,serif" font-size="14.00">q3</text>
</g>
<!-- q2&#45;&gt;q3 -->
<g id="edge3" class="edge">
<title>q2&#45;&gt;q3</title>
<path fill="none" stroke="black" d="M164.14,-29.52C174.16,-29.52 186.54,-29.52 197.71,-29.52"/>
<polygon fill="black" stroke="black" points="197.94,-33.02 207.94,-29.52 197.94,-26.02 197.94,-33.02"/>
<text text-anchor="middle" x="186.11" y="-33.72" font-family="Times,serif" font-size="14.00">ε</text>
</g>
<!-- q4 -->
<g id="node6" class="node">
<title>q4</title>
<ellipse fill="none" stroke="black" cx="312.49" cy="-29.52" rx="20.89" ry="20.89"/>
<text text-anchor="middle" x="312.49" y="-25.32" font-family="Times,serif" font-size="14.00">q4</text>
</g>
<!-- q3&#45;&gt;q4 -->
<g id="edge4" class="edge">
<title>q3&#45;&gt;q4</title>
<path fill="none" stroke="black" d="M249.64,-29.52C259.19,-29.52 270.86,-29.52 281.48,-29.52"/>
<polygon fill="black" stroke="black" points="281.64,-33.02 291.64,-29.52 281.64,-26.02 281.64,-33.02"/>
<text text-anchor="middle" x="270.69" y="-33.72" font-family="Times,serif" font-size="14.00">e</text>
</g>
<!-- q5 -->
<g id="node7" class="node">
<title>q5</title>
<ellipse fill="none" stroke="black" cx="398.04" cy="-29.52" rx="20.89" ry="20.89"/>
<text text-anchor="middle" x="398.04" y="-25.32" font-family="Times,serif" font-size="14.00">q5</text>
</g>
<!-- q4&#45;&gt;q5 -->
<g id="edge5" class="edge">
<title>q4&#45;&gt;q5</title>
<path fill="none" stroke="black" d="M333.29,-29.52C343.31,-29.52 355.69,-29.52 366.86,-29.52"/>
<polygon fill="black" stroke="black" points="367.09,-33.02 377.09,-29.52 367.09,-26.02 367.09,-33.02"/>
<text text-anchor="middle" x="355.26" y="-33.72" font-family="Times,serif" font-size="14.00">ε</text>
</g>
<!-- q6 -->
<g id="node8" class="node">
<title>q6</title>
<ellipse fill="none" stroke="black" cx="482.42" cy="-29.52" rx="20.89" ry="20.89"/>
<text text-anchor="middle" x="482.42" y="-25.32" font-family="Times,serif" font-size="14.00">q6</text>
</g>
<!-- q5&#45;&gt;q6 -->
<g id="edge6" class="edge">
<title>q5&#45;&gt;q6</title>
<path fill="none" stroke="black" d="M418.98,-29.52C428.7,-29.52 440.58,-29.52 451.37,-29.52"/>
<polygon fill="black" stroke="black" points="451.66,-33.02 461.66,-29.52 451.66,-26.02 451.66,-33.02"/>
<text text-anchor="middle" x="440.23" y="-33.72" font-family="Times,serif" font-size="14.00">g</text>
</g>
<!-- q7 -->
<g id="node9" class="node">
<title>q7</title>
<ellipse fill="none" stroke="black" cx="567.97" cy="-29.52" rx="20.89" ry="20.89"/>
<text text-anchor="middle" x="567.97" y="-25.32" font-family="Times,serif" font-size="14.00">q7</text>
</g>
<!-- q6&#45;&gt;q7 -->
<g id="edge7" class="edge">
<title>q6&#45;&gt;q7</title>
<path fill="none" stroke="black" d="M503.22,-29.52C513.24,-29.52 525.62,-29.52 536.8,-29.52"/>
<polygon fill="black" stroke="black" points="537.02,-33.02 547.02,-29.52 537.02,-26.02 537.02,-33.02"/>
<text text-anchor="middle" x="525.2" y="-33.72" font-family="Times,serif" font-size="14.00">ε</text>
</g>
<!-- q8 -->
<g id="node10" class="node">
<title>q8</title>
<ellipse fill="none" stroke="black" cx="651.57" cy="-29.52" rx="20.89" ry="20.89"/>
<text text-anchor="middle" x="651.57" y="-25.32" font-family="Times,serif" font-size="14.00">q8</text>
</g>
<!-- q7&#45;&gt;q8 -->
<g id="edge8" class="edge">
<title>q7&#45;&gt;q8</title>
<path fill="none" stroke="black" d="M588.73,-29.52C598.28,-29.52 609.95,-29.52 620.57,-29.52"/>
<polygon fill="black" stroke="black" points="620.72,-33.02 630.72,-29.52 620.72,-26.02 620.72,-33.02"/>
<text text-anchor="middle" x="609.77" y="-33.72" font-family="Times,serif" font-size="14.00">e</text>
</g>
<!-- q9 -->
<g id="node11" class="node">
<title>q9</title>
<ellipse fill="none" stroke="black" cx="737.12" cy="-29.52" rx="20.89" ry="20.89"/>
<text text-anchor="middle" x="737.12" y="-25.32" font-family="Times,serif" font-size="14.00">q9</text>
</g>
<!-- q8&#45;&gt;q9 -->
<g id="edge9" class="edge">
<title>q8&#45;&gt;q9</title>
<path fill="none" stroke="black" d="M672.37,-29.52C682.39,-29.52 694.77,-29.52 705.94,-29.52"/>
<polygon fill="black" stroke="black" points="706.17,-33.02 716.17,-29.52 706.17,-26.02 706.17,-33.02"/>
<text text-anchor="middle" x="694.35" y="-33.72" font-family="Times,serif" font-size="14.00">ε</text>
</g>
<!-- q9&#45;&gt;q10 -->
<g id="edge10" class="edge">
<title>q9&#45;&gt;q10</title>
<path fill="none" stroke="black" d="M757.91,-29.52C767.46,-29.52 779.26,-29.52 790.5,-29.52"/>
<polygon fill="black" stroke="black" points="790.58,-33.02 800.58,-29.52 790.58,-26.02 790.58,-33.02"/>
<text text-anchor="middle" x="779.31" y="-33.72" font-family="Times,serif" font-size="14.00">x</text>
</g>
</g>
</svg>
