<?xml version="1.0" encoding="UTF-8" standalone="no"?>
<!DOCTYPE svg PUBLIC "-//W3C//DTD SVG 1.1//EN"
 "http://www.w3.org/Graphics/SVG/1.1/DTD/svg11.dtd">
<!-- Generated by graphviz version 2.44.0 (20200518.1210)
 -->
<!-- Title: fsm Pages: 1 -->
<svg width="516pt" height="57pt"
 viewBox="0.00 0.00 516.01 57.39" xmlns="http://www.w3.org/2000/svg" xmlns:xlink="http://www.w3.org/1999/xlink">
<g id="graph0" class="graph" transform="scale(1 1) rotate(0) translate(4 53.39)">
<title>fsm</title>
<polygon fill="white" stroke="transparent" points="-4,4 -4,-53.39 512.01,-53.39 512.01,4 -4,4"/>
<!-- INITIAL_STATE -->
<g id="node1" class="node">
<title>INITIAL_STATE</title>
<ellipse fill="black" stroke="black" cx="1.8" cy="-24.69" rx="1.8" ry="1.8"/>
</g>
<!-- q1 -->
<g id="node3" class="node">
<title>q1</title>
<ellipse fill="none" stroke="black" cx="61.29" cy="-24.69" rx="20.89" ry="20.89"/>
<text text-anchor="middle" x="61.29" y="-20.49" font-family="Times,serif" font-size="14.00">q1</text>
</g>
<!-- INITIAL_STATE&#45;&gt;q1 -->
<g id="edge1" class="edge">
<title>INITIAL_STATE&#45;&gt;q1</title>
<path fill="none" stroke="black" d="M3.8,-24.69C7.17,-24.69 18.55,-24.69 30.23,-24.69"/>
<polygon fill="black" stroke="black" points="30.38,-28.19 40.38,-24.69 30.38,-21.19 30.38,-28.19"/>
</g>
<!-- q0 -->
<g id="node2" class="node">
<title>q0</title>
<ellipse fill="none" stroke="black" cx="483.32" cy="-24.69" rx="20.86" ry="20.86"/>
<ellipse fill="none" stroke="black" cx="483.32" cy="-24.69" rx="24.89" ry="24.89"/>
<text text-anchor="middle" x="483.32" y="-20.49" font-family="Times,serif" font-size="14.00">q0</text>
</g>
<!-- q4 -->
<g id="node4" class="node">
<title>q4</title>
<ellipse fill="none" stroke="black" cx="143.34" cy="-24.69" rx="20.89" ry="20.89"/>
<text text-anchor="middle" x="143.34" y="-20.49" font-family="Times,serif" font-size="14.00">q4</text>
</g>
<!-- q1&#45;&gt;q4 -->
<g id="edge2" class="edge">
<title>q1&#45;&gt;q4</title>
<path fill="none" stroke="black" d="M82.08,-24.69C91.22,-24.69 102.27,-24.69 112.4,-24.69"/>
<polygon fill="black" stroke="black" points="112.5,-28.19 122.5,-24.69 112.5,-21.19 112.5,-28.19"/>
<text text-anchor="middle" x="102.32" y="-28.89" font-family="Times,serif" font-size="14.00">r</text>
</g>
<!-- q2 -->
<g id="node5" class="node">
<title>q2</title>
<ellipse fill="none" stroke="black" cx="226.94" cy="-24.69" rx="20.89" ry="20.89"/>
<text text-anchor="middle" x="226.94" y="-20.49" font-family="Times,serif" font-size="14.00">q2</text>
</g>
<!-- q4&#45;&gt;q2 -->
<g id="edge5" class="edge">
<title>q4&#45;&gt;q2</title>
<path fill="none" stroke="black" d="M164.09,-24.69C173.65,-24.69 185.32,-24.69 195.94,-24.69"/>
<polygon fill="black" stroke="black" points="196.09,-28.19 206.09,-24.69 196.09,-21.19 196.09,-28.19"/>
<text text-anchor="middle" x="185.14" y="-28.89" font-family="Times,serif" font-size="14.00">e</text>
</g>
<!-- q5 -->
<g id="node6" class="node">
<title>q5</title>
<ellipse fill="none" stroke="black" cx="311.33" cy="-24.69" rx="20.89" ry="20.89"/>
<text text-anchor="middle" x="311.33" y="-20.49" font-family="Times,serif" font-size="14.00">q5</text>
</g>
<!-- q2&#45;&gt;q5 -->
<g id="edge3" class="edge">
<title>q2&#45;&gt;q5</title>
<path fill="none" stroke="black" d="M247.89,-24.69C257.6,-24.69 269.49,-24.69 280.27,-24.69"/>
<polygon fill="black" stroke="black" points="280.57,-28.19 290.57,-24.69 280.57,-21.19 280.57,-28.19"/>
<text text-anchor="middle" x="269.14" y="-28.89" font-family="Times,serif" font-size="14.00">g</text>
</g>
<!-- q3 -->
<g id="node7" class="node">
<title>q3</title>
<ellipse fill="none" stroke="black" cx="394.93" cy="-24.69" rx="20.89" ry="20.89"/>
<text text-anchor="middle" x="394.93" y="-20.49" font-family="Times,serif" font-size="14.00">q3</text>
</g>
<!-- q5&#45;&gt;q3 -->
<g id="edge6" class="edge">
<title>q5&#45;&gt;q3</title>
<path fill="none" stroke="black" d="M332.08,-24.69C341.63,-24.69 353.31,-24.69 363.92,-24.69"/>
<polygon fill="black" stroke="black" points="364.08,-28.19 374.08,-24.69 364.08,-21.19 364.08,-28.19"/>
<text text-anchor="middle" x="353.13" y="-28.89" font-family="Times,serif" font-size="14.00">e</text>
</g>
<!-- q3&#45;&gt;q0 -->
<g id="edge4" class="edge">
<title>q3&#45;&gt;q0</title>
<path fill="none" stroke="black" d="M415.97,-24.69C425.56,-24.69 437.32,-24.69 448.26,-24.69"/>
<polygon fill="black" stroke="black" points="448.4,-28.19 458.4,-24.69 448.4,-21.19 448.4,-28.19"/>
<text text-anchor="middle" x="437.12" y="-28.89" font-family="Times,serif" font-size="14.00">x</text>
</g>
</g>
</svg>
